:SAMPLES-PER-SECOND 30
:FULLY-SPECIFIED
:DEGREES
111
root  -48.0963 40.6232 -6.21633 -86.6556 -85.8018 79.2067
RightUpLeg  -18.6575 -9.55916 -7.14242
RightLeg  28.0274 -5.27154 -3.31665
RightFoot  4.56441 -0.784284 5.83073
RightToes  1.74622e-010 0 -3.6325e-017
Spine  8.99406 -1.22728 -4.78306
Spine1  5.80945 -1.92368 0.570042
HEad  -13.1245 3.31856 -0.892104
LeftShoulder1  8.47713 -11.9317 -47.9327
LeftArm  -10.211 5.80206 -23.108
LeftForeArm  29.1644 -38.03 -6.95851
LeftHand  -0.244104 0.0205437 5.32207
RightShoulder  5.93535 9.05939 41.0445
RightArm  12.1053 -14.625 27.7704
RightForeArm  1.91675 16.9235 6.82146
RightHand  -0.563308 -0.0310127 -12.2416
LeftUpLeg  3.49329 4.82883 -4.56188
LeftLeg  10.3498 13.7779 -4.07881
LeftFoot  -6.76932 -0.168989 5.26101
LeftToes  -5.82109e-011 8.55049e-011 -1.09726e-011
112
root  -49.2906 40.5151 -6.28842 -78.6323 -84.8008 71.1101
RightUpLeg  -17.4814 -11.7678 -7.62444
RightLeg  16.186 -5.09542 -1.61657
RightFoot  6.11977 -0.915934 6.23359
RightToes  1.74622e-010 0 -3.6325e-017
Spine  8.57026 -1.52263 -6.20356
Spine1  5.98891 -2.36346 0.981706
HEad  -13.0599 3.10094 -0.558738
LeftShoulder1  8.41776 -11.916 -47.6412
LeftArm  -11.5227 2.93913 -21.9992
LeftForeArm  30.0796 -41.3171 -7.87442
LeftHand  -0.244104 0.0205437 5.32207
RightShoulder  5.81024 8.93515 40.5406
RightArm  7.20912 -17.3374 27.1985
RightForeArm  3.22752 15.7275 6.93209
RightHand  -0.559598 -0.250366 -12.6632
LeftUpLeg  5.48103 4.82668 -5.18406
LeftLeg  10.5794 12.917 -4.11005
LeftFoot  -8.53535 -0.0622302 4.65383
LeftToes  -5.82109e-011 8.55049e-011 -1.09726e-011
113
root  -50.5372 40.3722 -6.37022 -77.7983 -83.8657 70.1677
RightUpLeg  -15.929 -11.379 -8.93001
RightLeg  6.28896 -5.41889 0.859347
RightFoot  6.14953 -0.97611 6.61785
RightToes  1.74622e-010 0 -3.6325e-017
Spine  7.87695 -1.66728 -7.08795
Spine1  6.2486 -2.51585 1.01719
HEad  -12.5299 2.84047 -0.524635
LeftShoulder1  8.32249 -11.8275 -47.3691
LeftArm  -12.7732 0.8667 -21.1152
LeftForeArm  31.2697 -43.984 -8.65865
LeftHand  -0.244104 0.0205437 5.32207
RightShoulder  5.7352 8.89139 40.1242
RightArm  1.33472 -19.3332 27.0064
RightForeArm  6.15078 12.6613 7.35234
RightHand  -0.529743 -0.677063 -13.0306
LeftUpLeg  7.56753 4.76772 -5.79699
LeftLeg  10.9165 12.5442 -4.0253
LeftFoot  -10.5745 0.0363615 3.82703
LeftToes  -5.82109e-011 8.55049e-011 -1.09726e-011
114
root  -51.8198 40.1747 -6.47873 -76.7541 -83.1639 69.1832
RightUpLeg  -14.5077 -9.28438 -10.2373
RightLeg  -0.42905 -5.86445 2.71023
RightFoot  4.92751 -0.931501 6.72663
RightToes  1.74622e-010 0 -3.6325e-017
Spine  6.76422 -1.83036 -7.55651
Spine1  6.66975 -2.65731 1.11351
HEad  -11.7395 2.52475 -0.754911
LeftShoulder1  8.18556 -11.6345 -47.1789
LeftArm  -13.3854 -0.86529 -20.5067
LeftForeArm  31.9473 -45.3 -9.07062
LeftHand  -0.244104 0.0205437 5.32207
RightShoulder  5.71208 8.91758 39.8554
RightArm  -3.6488 -20.7639 27.0263
RightForeArm  9.59338 8.87079 7.2311
RightHand  -0.458004 -1.21893 -12.6567
LeftUpLeg  9.28005 4.89016 -6.11251
LeftLeg  11.888 11.9412 -3.67675
LeftFoot  -13.3118 0.124017 2.59867
LeftToes  -5.82109e-011 8.55049e-011 -1.09726e-011
115
root  -53.095 39.9674 -6.61772 -74.3441 -82.803 66.8541
RightUpLeg  -13.746 -9.21888 -10.1251
RightLeg  -2.83537 -4.78102 2.85699
RightFoot  5.42745 -0.766322 5.48714
RightToes  1.74622e-010 0 -3.6325e-017
Spine  5.56274 -1.98046 -7.55616
Spine1  7.29921 -2.83496 1.48663
HEad  -11.0169 2.21922 -1.0984
LeftShoulder1  8.09548 -11.5201 -47.011
LeftArm  -13.478 -2.09773 -20.2205
LeftForeArm  31.8879 -45.4054 -9.1145
LeftHand  -0.244104 0.0205437 5.32207
RightShoulder  5.73036 8.99002 39.7411
RightArm  -5.97547 -22.0368 27.2114
RightForeArm  11.8661 6.04857 6.51033
RightHand  -0.34219 -2.01383 -11.5376
LeftUpLeg  10.8346 6.45969 -5.67383
LeftLeg  13.1812 9.77993 -3.1282
LeftFoot  -15.7232 0.162105 1.71828
LeftToes  -5.82109e-011 8.55049e-011 -1.09726e-011
116
root  -54.3384 39.8114 -6.74344 -73.4118 -83.1965 65.7377
RightUpLeg  -13.5105 -9.1268 -9.42247
RightLeg  -1.48245 -4.86851 2.89251
RightFoot  9.56077 -0.443017 2.80081
RightToes  1.74622e-010 0 -3.6325e-017
Spine  4.8995 -2.01452 -6.12847
Spine1  7.92235 -2.78723 1.41939
HEad  -10.7563 2.07662 -1.68156
LeftShoulder1  8.1204 -11.5393 -47.0971
LeftArm  -13.3821 -2.41785 -20.0024
LeftForeArm  31.5672 -45.1726 -9.05376
LeftHand  -0.244104 0.0205437 5.32207
RightShoulder  5.73123 8.99139 39.7431
RightArm  -6.86236 -23.2876 27.4689
RightForeArm  13.2935 5.06588 6.0413
RightHand  -0.228716 -2.9464 -10.4037
LeftUpLeg  12.5896 9.90923 -4.23392
LeftLeg  14.5649 6.23935 -2.0198
LeftFoot  -17.1337 0.175136 1.42373
LeftToes  -5.82109e-011 8.55049e-011 -1.09726e-011
117
root  -55.5966 39.6861 -6.82051 -77.8836 -84.7212 69.7247
RightUpLeg  -14.004 -9.20451 -7.96249
RightLeg  2.75156 -4.32868 3.15133
RightFoot  14.1618 0.0492625 0.196605
RightToes  1.74622e-010 0 -3.6325e-017
Spine  4.83307 -1.99236 -2.55765
Spine1  8.31355 -2.32159 0.112982
HEad  -11.1386 2.29528 -2.76114
LeftShoulder1  8.26615 -11.5768 -47.8352
LeftArm  -13.2326 -1.6605 -19.5817
LeftForeArm  31.6493 -45.0535 -9.00558
LeftHand  -0.244104 0.0205437 5.32207
RightShoulder  5.67983 8.87654 39.7526
RightArm  -7.11628 -24.1501 27.8506
RightForeArm  13.8884 5.70909 5.97311
RightHand  -0.178502 -3.42207 -9.81827
LeftUpLeg  14.1988 13.3785 -2.00034
LeftLeg  16.9306 3.41092 -0.144379
LeftFoot  -18.3652 0.10485 0.00469679
LeftToes  -5.82109e-011 8.55049e-011 -1.09726e-011
118
root  -56.8506 39.6426 -6.88432 -96.7771 -86.9506 88.3073
RightUpLeg  -14.6223 -9.93937 -5.36456
RightLeg  7.33619 -2.07982 3.24779
RightFoot  15.1377 0.516764 -1.77343
RightToes  1.74622e-010 0 -3.6325e-017
Spine  4.82877 -1.99882 2.01541
Spine1  8.54388 -1.77837 -1.47479
HEad  -11.9112 3.07961 -4.09625
LeftShoulder1  8.44035 -11.5807 -48.84
LeftArm  -13.093 0.361291 -19.4922
LeftForeArm  32.301 -44.5528 -8.7867
LeftHand  -0.244104 0.0205437 5.32207
RightShoulder  5.65634 8.82501 39.7534
RightArm  -7.22029 -24.2954 28.4125
RightForeArm  14.1625 6.99601 6.07125
RightHand  -0.191689 -3.17466 -9.45244
LeftUpLeg  14.6264 14.5826 0.487861
LeftLeg  20.9237 2.989 1.73972
LeftFoot  -18.6907 -0.140492 -4.0282
LeftToes  -5.82109e-011 8.55049e-011 -1.09726e-011
119
root  -58.0296 39.7271 -7.01756 -144.707 -88.4795 136.516
RightUpLeg  -14.7905 -10.7338 -2.61974
RightLeg  10.4956 -0.170172 3.163
RightFoot  12.6234 0.838995 -3.54779
RightToes  1.74622e-010 0 -3.6325e-017
Spine  4.58158 -2.13657 5.28714
Spine1  8.35715 -1.69194 -1.75829
HEad  -12.288 4.24695 -4.94933
LeftShoulder1  8.47278 -11.5984 -48.9704
LeftArm  -12.9229 3.79163 -20.8209
LeftForeArm  32.9739 -42.9148 -8.19569
LeftHand  -0.244104 0.0205437 5.32207
RightShoulder  5.72887 8.96901 39.8037
RightArm  -7.25347 -24.0643 29.2329
RightForeArm  14.3323 8.47796 6.1841
RightHand  -0.216176 -2.69447 -8.89224
LeftUpLeg  12.5355 13.1013 2.52531
LeftLeg  27.436 4.89714 3.10063
LeftFoot  -15.4656 -0.213976 -8.93491
LeftToes  -5.82109e-011 8.55049e-011 -1.09726e-011
120
root  -59.0823 39.8457 -7.22777 -168.231 -89.3558 160.777
RightUpLeg  -14.5248 -10.3899 -1.43032
RightLeg  12.2748 -1.13093 3.43747
RightFoot  9.63927 0.944748 -4.7262
RightToes  1.74622e-010 0 -3.6325e-017
Spine  4.22882 -2.48847 5.83118
Spine1  7.99405 -2.40054 0.304192
HEad  -12.4307 5.34705 -5.38263
LeftShoulder1  8.4576 -11.5797 -48.9429
LeftArm  -12.4773 7.33294 -22.972
LeftForeArm  32.9032 -40.0125 -7.30245
LeftHand  -0.244104 0.0205437 5.32207
RightShoulder  5.67135 8.97663 39.3372
RightArm  -6.57516 -23.4129 30.5903
RightForeArm  13.3259 10.6141 6.25029
RightHand  -0.242973 -2.26717 -8.73267
LeftUpLeg  7.57563 12.419 4.24728
LeftLeg  36.6465 5.57726 4.81572
LeftFoot  -7.84401 0.363605 -11.012
LeftToes  -5.82109e-011 8.55049e-011 -1.09726e-011
121
root  -59.9889 39.932 -7.42131 80.8979 -88.9205 -87.5941
RightUpLeg  -14.0831 -10.0511 -1.31368
RightLeg  13.3027 -3.01464 4.01636
RightFoot  7.91329 0.903457 -4.99481
RightToes  1.74622e-010 0 -3.6325e-017
Spine  4.4795 -2.92653 5.68764
Spine1  7.18121 -3.20183 2.55304
HEad  -12.7707 5.86156 -5.36479
LeftShoulder1  8.46138 -11.5661 -49.0093
LeftArm  -11.0619 9.86057 -25.0252
LeftForeArm  32.1906 -36.1394 -6.26207
LeftHand  -0.244104 0.0205437 5.32207
RightShoulder  5.52632 8.79063 38.869
RightArm  -4.5166 -22.6498 32.1928
RightForeArm  9.92159 13.8957 6.05451
RightHand  -0.323156 -1.5786 -9.66453
LeftUpLeg  1.19089 11.7405 5.20839
LeftLeg  46.2214 5.94621 7.02214
LeftFoot  0.357641 0.949416 -9.36067
LeftToes  -5.82109e-011 8.55049e-011 -1.09726e-011
